<svg xmlns="http://www.w3.org/2000/svg" version="1.1" xmlns:xlink="http://www.w3.org/1999/xlink" xmlns:svgjs="http://svgjs.dev/svgjs" width="1000" height="2302" viewBox="0 0 1000 2302"><g transform="matrix(1,0,0,1,-0.490932279369531,0.7039755351684107)"><svg viewBox="0 0 142 327" data-background-color="#ffffff" preserveAspectRatio="xMidYMid meet" height="2302" width="1000" xmlns="http://www.w3.org/2000/svg" xmlns:xlink="http://www.w3.org/1999/xlink"><g id="tight-bounds" transform="matrix(1,0,0,1,0.06971264687823009,-0.10000000000002274)"><svg viewBox="0 0 141.8605689156729 327.2" height="327.2" width="141.8605689156729"><g><svg viewBox="0 0 233.20759054242 537.8910024732709" height="327.2" width="141.8605689156729"><g transform="matrix(1,0,0,1,0,72.25745207176436)"><svg viewBox="0 0 233.20759054242 465.63355040150657" height="465.63355040150657" width="233.20759054242"><g id="textblocktransform"><svg viewBox="0 0 233.20759054242 465.63355040150657" height="465.63355040150657" width="233.20759054242" id="textblock"><g><svg viewBox="0 0 233.20759054242 326.2184" height="326.2184" width="233.20759054242"><g transform="matrix(1,0,0,1,0,0)"><svg width="233.20759054242" viewBox="1.4500000476837158 -35.349998474121094 25.69999885559082 35.94999694824219" height="326.2184" data-palette-color="#1cd3e0"><path d="M10.45 0.6Q7.55 0.6 4.75-0.25 1.95-1.1 1.45-2.1L1.45-2.1Q1.7-3.3 1.9-5.38 2.1-7.45 2.1-8.55L2.1-8.55Q2.5-8.9 3.25-8.9L3.25-8.9Q3.25-6.05 3.88-4.45 4.5-2.85 5.95-2.13 7.4-1.4 10.05-1.4L10.05-1.4Q14.75-1.4 17.88-3.38 21-5.35 21-9L21-9Q21-10.9 19.9-12.78 18.8-14.65 16-17.25L16-17.25 14.65-18.5Q12.05-20.85 10.83-22.58 9.6-24.3 9.6-26.75L9.6-26.75Q9.6-29.15 10.83-31.13 12.05-33.1 14.33-34.23 16.6-35.35 19.55-35.35L19.55-35.35Q22.45-35.35 24.5-34.35 26.55-33.35 27.15-32L27.15-32Q27.15-30.5 26.7-28.55 26.25-26.6 26.15-26.25L26.15-26.25Q25.5-26.25 24.9-26.45L24.9-26.45 25.05-27.45Q25.15-28.35 25.15-28.9L25.15-28.9Q25.15-31.2 23.93-32.23 22.7-33.25 20.1-33.25L20.1-33.25Q16.45-33.25 14.28-31.6 12.1-29.95 12.1-27.3L12.1-27.3Q12.1-25.25 13.4-23.58 14.7-21.9 17.4-19.5L17.4-19.5 18.45-18.55Q21.65-15.65 22.83-13.85 24-12.05 24-9.7L24-9.7Q24-6.3 21.93-3.98 19.85-1.65 16.73-0.53 13.6 0.6 10.45 0.6L10.45 0.6Z" opacity="1" transform="matrix(1,0,0,1,0,0)" fill="#ffffff" class="wordmark-text-0" data-fill-palette-color="primary" id="text-0"></path></svg></g></svg></g><g transform="matrix(1,0,0,1,69.76405071076493,456.70575999999994)"><svg viewBox="0 0 93.67948912089012 8.927790401506636" height="8.927790401506636" width="93.67948912089012"><g transform="matrix(1,0,0,1,0,0)"><svg width="93.67948912089012" viewBox="0.05000000447034836 -35.029998779296875 460.1100158691406 43.720001220703125" height="8.927790401506636" data-palette-color="#abddd9"><path d="M13.92-8.89L13.92-8.89Q14.72-9.03 14.72-9.7 14.72-10.38 14.29-11.22 13.87-12.06 13.04-12.82L13.04-12.82Q10.86-14.77 7.15-14.77L7.15-14.77Q5.32-14.77 3.74-14.16L3.74-14.16Q2.05-15.01 1.05-16.87 0.05-18.73 0.05-20.87L0.05-20.87Q0.05-26.49 4.74-29.54L4.74-29.54Q8.76-32.15 14.67-32.15L14.67-32.15Q19.07-32.15 22.07-31.21 25.07-30.27 26.98-28.81L26.98-28.81Q27.54-27.2 27.54-25.46 27.54-23.73 27.08-22.31 26.61-20.9 25.73-20.04L25.73-20.04Q24.9-20.65 22.73-21.29 20.56-21.92 18.77-21.92 16.99-21.92 16.39-21.7 15.8-21.48 15.8-21.02L15.8-21.02Q15.8-20.8 15.87-20.61L15.87-20.61Q16.72-20.83 18.07-20.83L18.07-20.83Q22.83-20.83 25.83-18.58L25.83-18.58Q29.37-15.89 29.37-10.52L29.37-10.52Q29.37-5.79 25.54-2.66L25.54-2.66Q21.39 0.68 14.38 0.68L14.38 0.68Q10.52 0.68 7.69 0.11 4.86-0.46 2.17-1.9L2.17-1.9Q0.34-4.57 0.34-7.31 0.34-10.06 2.22-11.87 4.1-13.67 6.85-13.67 9.59-13.67 11.34-12.55 13.09-11.43 13.92-8.89ZM43.53-13.6L43.53-13.6 43.53-9.33Q43.7-9.16 44.09-9.16 44.48-9.16 44.65-9.42 44.82-9.69 44.82-10.35L44.82-10.35 44.82-13.84Q44.82-16.19 44.63-16.96 44.43-17.72 43.89-17.72L43.89-17.72Q43.55-17.72 43.31-17.48L43.31-17.48Q43.53-15.06 43.53-13.6ZM34.4-2.78L34.4-2.78Q30.39-6.64 30.39-13.24 30.39-19.85 34.16-23.67 37.94-27.49 44.06-27.49 50.19-27.49 53.98-23.51L53.98-23.51Q57.74-19.53 57.74-13.15 57.74-6.76 54.11-3 50.49 0.76 44.26 0.76 38.03 0.76 34.4-2.78ZM67.77 0.32L67.77 0.32Q64.86 0.32 63.13-0.73L63.13-0.73Q61.2-1.83 61.2-3.98L61.2-3.98 61.2-15.43 61.96-15.43Q63.18-15.43 63.18-16.24L63.18-16.24Q63.18-16.33 63.13-16.53L63.13-16.53 59.08-16.53Q57.66-18.55 57.66-21.53 57.66-24.51 59.08-26.68L59.08-26.68 61.2-26.68Q61.79-30.74 64.37-32.89 66.96-35.03 71.26-35.03L71.26-35.03Q74.34-35.03 76.61-34.16 78.88-33.28 79.93-32.15L79.93-32.15Q80.17-31.35 80.17-30.2L80.17-30.2 80.17-29.74Q80.17-27.22 79.44-25.32L79.44-25.32Q77.75-24.66 74.73-24.66L74.73-24.66Q73.48-24.66 72-24.83 70.53-25 69.82-25.17L69.82-25.17Q69.65-25 69.65-24.68L69.65-24.68Q69.65-24.27 70.82-23.91 71.99-23.56 74.62-23.56 77.24-23.56 78.93-23.85L78.93-23.85Q79.1-23.46 79.26-22.38 79.41-21.29 79.41-20.24L79.41-20.24Q79.41-17.99 78.58-16.53L78.58-16.53 74.07-16.53 74.07-1.37Q71.41 0.32 67.77 0.32ZM80.12-8.37L80.12-15.43 81.63-15.43Q82.85-15.43 82.85-16.24L82.85-16.24Q82.85-16.33 82.81-16.53L82.81-16.53 77.34-16.53Q76.8-18.24 76.8-20.35 76.8-22.46 77.12-23.78L77.12-23.78Q78.51-24.66 80.95-26.46L80.95-26.46Q81.63-28.13 82.73-31.74L82.73-31.74Q82.88-32.23 83.07-32.69L83.07-32.69Q84.98-33.18 87.42-33.18 89.86-33.18 92.23-32.67L92.23-32.67 92.23-26.68 96.45-26.68Q97.87-24.54 97.87-21.63L97.87-21.63Q97.87-20.31 97.5-18.92 97.14-17.53 96.45-16.55L96.45-16.55 92.96-16.55 92.96-12.87Q92.96-9.74 95.57-9.74L95.57-9.74 96.62-9.74Q97.14-7.89 97.14-6.52L97.14-6.52Q97.14-3.15 95.02-1.35 92.91 0.44 88.9 0.44 84.88 0.44 82.5-1.79 80.12-4.03 80.12-8.37L80.12-8.37ZM109.78-21L109.61-13.6Q109.61-12.18 109.73-11.69L109.73-11.69Q109.88-10.91 110.54-10.91L110.54-10.91 110.76-10.91Q110.83-10.91 110.98-10.96L110.98-10.96Q110.9-11.62 110.9-12.87 110.9-14.11 111.03-16.94 111.15-19.78 111.15-25.2L111.15-25.2Q113.56-26.86 116.69-26.86L116.69-26.86Q119.13-26.86 120.73-25.9 122.33-24.95 122.94-23.19L122.94-23.19Q122.94-22.36 122.77-19.8L122.77-19.8Q122.26-13.67 121.28-10.52L121.28-10.52Q121.55-10.38 121.85-10.38 122.16-10.38 122.33-10.57L122.33-10.57Q123.04-11.38 123.67-16.38L123.67-16.38Q124.18-21.26 124.31-23.88L124.31-23.88Q124.33-24.8 124.38-25.29L124.38-25.29Q125.31-26 126.86-26.43 128.41-26.86 130.09-26.86L130.09-26.86Q132.95-26.86 134.76-25.28 136.56-23.71 136.56-21.07L136.56-21.07Q136.56-19.12 135.78-15.72 135-12.33 133.66-8.51 132.31-4.69 131.48-3.17L131.48-3.17Q130.31-1.07 128.69-0.32 127.07 0.44 123.67 0.44L123.67 0.44Q122.65 0.44 121.01 0.22 119.37 0 118.76-0.24L118.76-0.24Q118.25-1.07 117.56-2.69 116.86-4.3 116.57-5.18L116.57-5.18Q115.64-5.03 115.64-4.37L115.64-4.37Q115.64-4.17 115.96-3.28 116.27-2.39 116.42-2.08L116.42-2.08Q116.35-1.93 116.05-1.31 115.76-0.68 115.42-0.22L115.42-0.22Q113.54 0.44 109.99 0.44 106.44 0.44 103.92-0.56L103.92-0.56Q101.97-3.25 100.54-6.98 99.11-10.72 98.13-16.55L98.13-16.55Q96.52-18.65 96.52-21.61 96.52-24.56 97.99-26.73L97.99-26.73 103.9-26.73Q107.36-26.73 108.73-25.1L108.73-25.1Q109.78-23.83 109.78-21L109.78-21ZM161.1-16.87L161.1-12.08Q161.1-10.33 161.49-9.25 161.88-8.18 162.85-7.57L162.85-7.57Q162.88-7.45 162.88-7.1L162.88-7.1 162.88-6.67Q162.88-3.2 160.78-1.27L160.78-1.27Q158.92 0.44 156.19 0.44L156.19 0.44Q154.33 0.44 152.8-0.44 151.26-1.32 150.6-2.98L150.6-2.98Q149.77-2.98 149.77-2.17L149.77-2.17Q149.77-1.49 150.62-0.63L150.62-0.63Q149.04 0.44 145.84 0.44L145.84 0.44Q141.32 0.44 138.62-2.01 135.93-4.47 135.93-8.87 135.93-13.28 138.78-15.7L138.78-15.7Q141.39-17.87 145.54-17.87L145.54-17.87Q146.96-17.87 148.28-17.68L148.28-17.68Q149.16-17.5 149.23-17.48L149.23-17.48Q149.3-17.72 149.3-17.9L149.3-17.9Q149.3-18.53 148.23-18.75 147.16-18.97 145.42-18.97L145.42-18.97Q141.74-18.97 139.12-17.48L139.12-17.48Q137.93-19.51 137.93-22.61L137.93-22.61Q137.93-24.37 138.37-25.22L138.37-25.22Q140.12-26.03 142.83-26.65 145.54-27.27 148.55-27.27L148.55-27.27Q154.75-27.27 157.92-24.56 161.1-21.85 161.1-16.87L161.1-16.87ZM148.43-10.89L148.43-10.89Q147.4-10.89 147.4-9.96L147.4-9.96Q147.4-9.08 148.6-9.08L148.6-9.08Q149.43-9.08 149.82-9.48 150.21-9.89 150.21-10.89L150.21-10.89Q150.21-10.89 148.43-10.89ZM170.79 0.32L170.79 0.32Q167.88 0.32 166.15-0.73L166.15-0.73Q164.22-1.83 164.22-3.98L164.22-3.98 164.22-16.55Q162.78-18.58 162.78-21.55 162.78-24.51 164.22-26.68L164.22-26.68 167.95-26.68Q170.83-26.68 172.08-24.83L172.08-24.83Q171.47-24.15 171.01-23.1 170.54-22.05 170.54-21.59 170.54-21.14 170.77-20.92 171.01-20.7 171.44-20.7L171.44-20.7Q172.3-24.1 174.69-25.68L174.69-25.68Q176.67-27.03 179.57-27.03L179.57-27.03Q183.19-27.03 185.24-25.49L185.24-25.49Q185.97-23.54 185.97-20.72 185.97-17.9 184.85-15.6L184.85-15.6Q184.02-15.16 182.55-14.86 181.09-14.55 179.6-14.55 178.11-14.55 176.93-14.76 175.74-14.97 175.2-15.14L175.2-15.14Q175.01-14.94 175.01-14.58 175.01-14.21 175.49-14.03 175.96-13.84 177.08-13.62L177.08-13.62 177.08-1.37Q174.42 0.32 170.79 0.32ZM201.06 0.76L201.06 0.76Q194.29 0.76 190.39-3L190.39-3Q186.38-6.79 186.38-13.37 186.38-19.95 190.51-23.8L190.51-23.8Q194.32-27.39 200.15-27.39 205.99-27.39 209.52-24.18 213.04-20.97 213.04-16.28L213.04-16.28Q213.04-12.11 210.14-9.99L210.14-9.99Q207.45-7.98 202.81-7.98L202.81-7.98Q199.35-7.98 196.96-9.42L196.96-9.42Q196.76-9.28 196.76-8.89L196.76-8.89Q196.76-8.15 198.69-7.54L198.69-7.54Q200.62-6.88 203.07-6.88 205.52-6.88 207.54-7.51 209.55-8.13 210.77-8.98L210.77-8.98Q211.36-8.47 211.71-7.09 212.07-5.71 212.07-4.58 212.07-3.44 211.85-2.56L211.85-2.56Q209.94-0.95 207.94-0.27L207.94-0.27Q205.11 0.76 201.06 0.76ZM200.74-15.77L200.74-15.77Q201.96-15.77 201.96-16.7L201.96-16.7Q201.96-17.58 200.67-17.58 199.37-17.58 199.18-16.19L199.18-16.19Q199.86-15.77 200.74-15.77ZM240.8-14.72L240.8-16.85Q240.8-19.29 240.58-20.2 240.36-21.12 239.77-21.12L239.77-21.12Q239.41-21.12 239.11-20.87L239.11-20.87Q239.16-20.43 239.26-19.7 239.36-18.97 239.36-16.58L239.36-16.58 239.36-14.99Q239.36-13.33 239.28-12.57 239.21-11.82 239.16-11.28L239.16-11.28Q239.14-10.99 239.11-10.69L239.11-10.69Q239.41-10.45 239.77-10.45L239.77-10.45Q240.36-10.45 240.58-11.36 240.8-12.28 240.8-14.72L240.8-14.72ZM237.87 0.02L231.69 0.02Q228.98 0.02 227.5-1.42 226.03-2.86 226.03-5.76L226.03-5.76 226.03-27.73Q226.03-29.59 229.75-30.87 233.47-32.15 238.06-32.15L238.06-32.15Q246.14-32.15 250.69-28.25L250.69-28.25Q255.57-24.05 255.57-15.72L255.57-15.72Q255.57-8.23 250.84-4.1 246.12 0.02 237.87 0.02L237.87 0.02ZM271.26 0.76L271.26 0.76Q264.5 0.76 260.6-3L260.6-3Q256.59-6.79 256.59-13.37 256.59-19.95 260.72-23.8L260.72-23.8Q264.53-27.39 270.36-27.39 276.2-27.39 279.72-24.18 283.25-20.97 283.25-16.28L283.25-16.28Q283.25-12.11 280.35-9.99L280.35-9.99Q277.66-7.98 273.02-7.98L273.02-7.98Q269.56-7.98 267.16-9.42L267.16-9.42Q266.97-9.28 266.97-8.89L266.97-8.89Q266.97-8.15 268.9-7.54L268.9-7.54Q270.82-6.88 273.28-6.88 275.73-6.88 277.75-7.51 279.76-8.13 280.98-8.98L280.98-8.98Q281.57-8.47 281.92-7.09 282.27-5.71 282.27-4.58 282.27-3.44 282.06-2.56L282.06-2.56Q280.15-0.95 278.15-0.27L278.15-0.27Q275.32 0.76 271.26 0.76ZM270.95-15.77L270.95-15.77Q272.17-15.77 272.17-16.7L272.17-16.7Q272.17-17.58 270.87-17.58 269.58-17.58 269.38-16.19L269.38-16.19Q270.07-15.77 270.95-15.77ZM296.51-11.94L296.51-11.94 296.51-11.35Q296.51-10.94 296.53-10.77L296.53-10.77Q296.82-10.64 297.09-10.64L297.09-10.64Q297.8-10.64 297.8-11.6L297.8-11.6Q297.8-14.09 298.39-20.97L298.39-20.97Q298.7-24.71 298.78-25.37L298.78-25.37Q301.07-26.9 304.28-26.9 307.49-26.9 309.25-25.2L309.25-25.2Q310.81-23.63 310.81-21.14L310.81-21.14Q310.81-19.46 310.35-17.65L310.35-17.65Q308.08-8.89 305.83-3.86L305.83-3.86Q304.64-1.25 302.19-0.29L302.19-0.29Q300.39 0.44 297.04 0.44L297.04 0.44Q295.26 0.44 293.51 0.15 291.77-0.15 290.84-0.54L290.84-0.54Q287.3-7.76 285.01-16.53L285.01-16.53Q284.25-17.29 283.71-18.65 283.18-20.02 283.18-21.48L283.18-21.48Q283.18-24.51 284.64-26.68L284.64-26.68Q284.64-26.68 290.72-26.68L290.72-26.68Q293.92-26.68 295.48-24.88L295.48-24.88Q296.65-23.51 296.99-20.9L296.99-20.9Q296.51-16.36 296.51-11.94ZM325.65 0.76L325.65 0.76Q318.89 0.76 314.98-3L314.98-3Q310.98-6.79 310.98-13.37 310.98-19.95 315.11-23.8L315.11-23.8Q318.92-27.39 324.75-27.39 330.59-27.39 334.11-24.18 337.64-20.97 337.64-16.28L337.64-16.28Q337.64-12.11 334.74-9.99L334.74-9.99Q332.05-7.98 327.41-7.98L327.41-7.98Q323.94-7.98 321.55-9.42L321.55-9.42Q321.36-9.28 321.36-8.89L321.36-8.89Q321.36-8.15 323.29-7.54L323.29-7.54Q325.21-6.88 327.67-6.88 330.12-6.88 332.14-7.51 334.15-8.13 335.37-8.98L335.37-8.98Q335.96-8.47 336.31-7.09 336.66-5.71 336.66-4.58 336.66-3.44 336.44-2.56L336.44-2.56Q334.54-0.95 332.54-0.27L332.54-0.27Q329.71 0.76 325.65 0.76ZM325.34-15.77L325.34-15.77Q326.56-15.77 326.56-16.7L326.56-16.7Q326.56-17.58 325.26-17.58 323.97-17.58 323.77-16.19L323.77-16.19Q324.46-15.77 325.34-15.77ZM351.46-29.47L351.46-29.47 351.46-12.3Q351.46-8.67 353.21-7.57L353.21-7.57Q353.24-7.45 353.24-7.1L353.24-7.1 353.24-6.67Q353.24-3.17 351.47-1.37 349.7 0.44 346.45 0.44 343.2 0.44 341.3-1.37L341.3-1.37Q339.03-3.52 339.03-7.86L339.03-7.86 339.03-33.23Q341.59-34.79 344.9-34.79 348.21-34.79 349.83-33.39 351.46-31.98 351.46-29.47ZM366.66-13.6L366.66-13.6 366.66-9.33Q366.84-9.16 367.23-9.16 367.62-9.16 367.79-9.42 367.96-9.69 367.96-10.35L367.96-10.35 367.96-13.84Q367.96-16.19 367.76-16.96 367.57-17.72 367.03-17.72L367.03-17.72Q366.69-17.72 366.44-17.48L366.44-17.48Q366.66-15.06 366.66-13.6ZM357.53-2.78L357.53-2.78Q353.53-6.64 353.53-13.24 353.53-19.85 357.3-23.67 361.07-27.49 367.2-27.49 373.33-27.49 377.11-23.51L377.11-23.51Q380.87-19.53 380.87-13.15 380.87-6.76 377.25-3 373.62 0.76 367.4 0.76 361.17 0.76 357.53-2.78ZM395.3-13.18L395.3-13.18 395.3-9.91Q395.47-9.74 395.86-9.74 396.25-9.74 396.42-10.01 396.59-10.28 396.59-10.94L396.59-10.94 396.59-13.43Q396.59-15.77 396.4-16.54 396.2-17.31 395.67-17.31L395.67-17.31Q395.32-17.31 395.08-17.07L395.08-17.07Q395.3-14.65 395.3-13.18ZM387.51-23.71L387.51-23.71Q387.51-22.97 388.37-22.97L388.37-22.97Q389.83-25.27 391.81-26.38 393.79-27.49 396.57-27.49 399.35-27.49 401.65-26.61L401.65-26.61Q404.8-25.37 406.63-22.61L406.63-22.61Q408.92-19.12 408.92-13.45L408.92-13.45Q408.92-7.08 405.52-3.55 402.11-0.02 396.08-0.02L396.08-0.02Q392.71-0.02 390.83-0.85L390.83-0.85Q390.66-0.76 390.66-0.44L390.66-0.44Q390.66 0.29 391.8 0.61 392.93 0.93 395.71 1.07L395.71 1.07 395.71 7.57Q393.2 8.69 390.2 8.69L390.2 8.69Q386.66 8.69 384.85 7.4L384.85 7.4Q382.8 6.01 382.8 3.13L382.8 3.13 382.8-16.53Q381.36-18.55 381.36-21.56L381.36-21.56Q381.36-22.78 381.75-24.22 382.14-25.66 382.8-26.68L382.8-26.68 386.27-26.68Q388.39-26.68 389.51-26.1L389.51-26.1Q387.51-24.61 387.51-23.71ZM424.57 0.76L424.57 0.76Q417.81 0.76 413.9-3L413.9-3Q409.9-6.79 409.9-13.37 409.9-19.95 414.02-23.8L414.02-23.8Q417.83-27.39 423.67-27.39 429.5-27.39 433.03-24.18 436.56-20.97 436.56-16.28L436.56-16.28Q436.56-12.11 433.65-9.99L433.65-9.99Q430.97-7.98 426.33-7.98L426.33-7.98Q422.86-7.98 420.47-9.42L420.47-9.42Q420.27-9.28 420.27-8.89L420.27-8.89Q420.27-8.15 422.2-7.54L422.2-7.54Q424.13-6.88 426.58-6.88 429.04-6.88 431.05-7.51 433.07-8.13 434.29-8.98L434.29-8.98Q434.87-8.47 435.23-7.09 435.58-5.71 435.58-4.58 435.58-3.44 435.36-2.56L435.36-2.56Q433.46-0.95 431.45-0.27L431.45-0.27Q428.62 0.76 424.57 0.76ZM424.25-15.77L424.25-15.77Q425.47-15.77 425.47-16.7L425.47-16.7Q425.47-17.58 424.18-17.58 422.88-17.58 422.69-16.19L422.69-16.19Q423.37-15.77 424.25-15.77ZM444.98 0.32L444.98 0.32Q442.07 0.32 440.34-0.73L440.34-0.73Q438.41-1.83 438.41-3.98L438.41-3.98 438.41-16.55Q436.97-18.58 436.97-21.55 436.97-24.51 438.41-26.68L438.41-26.68 442.15-26.68Q445.03-26.68 446.27-24.83L446.27-24.83Q445.66-24.15 445.2-23.1 444.73-22.05 444.73-21.59 444.73-21.14 444.96-20.92 445.2-20.7 445.64-20.7L445.64-20.7Q446.49-24.1 448.88-25.68L448.88-25.68Q450.86-27.03 453.77-27.03L453.77-27.03Q457.38-27.03 459.43-25.49L459.43-25.49Q460.16-23.54 460.16-20.72 460.16-17.9 459.04-15.6L459.04-15.6Q458.21-15.16 456.74-14.86 455.28-14.55 453.79-14.55 452.3-14.55 451.12-14.76 449.93-14.97 449.4-15.14L449.4-15.14Q449.2-14.94 449.2-14.58 449.2-14.21 449.68-14.03 450.15-13.84 451.28-13.62L451.28-13.62 451.28-1.37Q448.61 0.32 444.98 0.32Z" opacity="1" transform="matrix(1,0,0,1,0,0)" fill="#ffffff" class="slogan-text-1" data-fill-palette-color="secondary" id="text-1"></path></svg></g></svg></g></svg></g></svg></g><g transform="matrix(1,0,0,1,80.5732225324061,0)"><svg viewBox="0 0 72.06114547760778 46.15998007176436" height="46.15998007176436" width="72.06114547760778"><g><svg xmlns="http://www.w3.org/2000/svg" xmlns:xlink="http://www.w3.org/1999/xlink" version="1.1" x="0" y="0" viewBox="111.69998931884766 20.884868621826172 92.91011810302734 59.515140533447266" enable-background="new 109 0 100 100" xml:space="preserve" height="46.15998007176436" width="72.06114547760778" class="icon-icon-0" data-fill-palette-color="accent" id="icon-0"><g fill="#8c8c8c" data-fill-palette-color="accent"><path d="M138.2 33.6c3.9-1.7 2.9-4.2 4.6-5.1 1.1-0.6 1.9 0.3 2.6 0.5-0.1 0.4-0.1 0.8-0.2 1.3-0.3 5.5 3.9 10.2 9.4 10.5 5.5 0.3 10.2-3.9 10.5-9.4 0.3-5.5-3.9-10.2-9.4-10.5-3.7-0.2-7 1.6-8.9 4.4-0.5-1-1.5-2.5-3.1-3-2.8-0.9-6 0.4-7.7 2.6-1.7 2.2-1.7 6.6-6.4 7.6C127.6 33 134.7 35.2 138.2 33.6z" fill="#ffffff" data-fill-palette-color="accent"></path><path d="M176.9 67.4c0-3-2.3-4.4-5.2-4.4h-15.9L149 44.7l0 0c-1-3.2-4-5.6-7.6-5.6-1.3 0-2.5 0.3-3.6 0.9l0 0c-14.5 7.3-22.9 20.7-26.1 40.4l19 0c0.5-8.3 2-18 8.8-23.8l7.8 11.7 0 0c0.9 1.7 2.7 3 4.7 3h19.6C174.7 71.2 176.9 70.4 176.9 67.4z" fill="#ffffff" data-fill-palette-color="accent"></path></g><path d="M181.5 76.3c-0.4-0.8-2.3-4-6.2-4-4.4 0-6.2 4.1-6.3 4.2-0.1 0.3-0.1 0.7 0.1 0.9 0.2 0.3 0.5 0.5 0.8 0.5h10.7c0 0 0 0 0 0 0.6 0 1-0.4 1-1C181.7 76.7 181.6 76.4 181.5 76.3z" fill="#ffffff" data-fill-palette-color="accent"></path><path d="M202.5 28.5c-1.8-0.8-3.8 0.1-4.6 1.9l-15.1 35.4c-0.8 1.8 0.1 3.8 1.9 4.6 0.4 0.2 0.9 0.3 1.4 0.3 1.4 0 2.7-0.8 3.2-2.1l2.7-6.4 5.1 10.6H190c-1.4 0-2.5 1.1-2.5 2.5s1.1 2.5 2.5 2.5h11.1c0.9 0 1.7-0.4 2.1-1.2 0.5-0.7 0.5-1.6 0.1-2.4L194.6 56l9.7-22.9C205.1 31.3 204.3 29.3 202.5 28.5z" fill="#ffffff" data-fill-palette-color="accent"></path></svg></g></svg></g><g></g></svg></g><defs></defs></svg><rect width="141.8605689156729" height="327.2" fill="none" stroke="none" visibility="hidden"></rect></g></svg></g></svg>